<svg id="visual" viewBox="0 0 900 600" width="900" height="600" xmlns="http://www.w3.org/2000/svg" xmlns:xlink="http://www.w3.org/1999/xlink" version="1.1"><rect x="0" y="0" width="900" height="600" fill="#1b1b1b"></rect><path d="M0 360L21.5 362.3C43 364.7 86 369.3 128.8 380.2C171.7 391 214.3 408 257.2 410C300 412 343 399 385.8 394.2C428.7 389.3 471.3 392.7 514.2 393.2C557 393.7 600 391.3 642.8 397.7C685.7 404 728.3 419 771.2 427.2C814 435.3 857 436.7 878.5 437.3L900 438L900 601L878.5 601C857 601 814 601 771.2 601C728.3 601 685.7 601 642.8 601C600 601 557 601 514.2 601C471.3 601 428.7 601 385.8 601C343 601 300 601 257.2 601C214.3 601 171.7 601 128.8 601C86 601 43 601 21.5 601L0 601Z" fill="#919494"></path><path d="M0 428L21.5 426.5C43 425 86 422 128.8 425.7C171.7 429.3 214.3 439.7 257.2 449.3C300 459 343 468 385.8 471.8C428.7 475.7 471.3 474.3 514.2 466.5C557 458.7 600 444.3 642.8 437.5C685.7 430.7 728.3 431.3 771.2 438.2C814 445 857 458 878.5 464.5L900 471L900 601L878.5 601C857 601 814 601 771.2 601C728.3 601 685.7 601 642.8 601C600 601 557 601 514.2 601C471.3 601 428.7 601 385.8 601C343 601 300 601 257.2 601C214.3 601 171.7 601 128.8 601C86 601 43 601 21.5 601L0 601Z" fill="#7e8787"></path><path d="M0 454L21.5 460C43 466 86 478 128.8 478.7C171.7 479.3 214.3 468.7 257.2 471.2C300 473.7 343 489.3 385.8 497.3C428.7 505.3 471.3 505.7 514.2 499.3C557 493 600 480 642.8 469.5C685.7 459 728.3 451 771.2 456C814 461 857 479 878.5 488L900 497L900 601L878.5 601C857 601 814 601 771.2 601C728.3 601 685.7 601 642.8 601C600 601 557 601 514.2 601C471.3 601 428.7 601 385.8 601C343 601 300 601 257.2 601C214.3 601 171.7 601 128.8 601C86 601 43 601 21.5 601L0 601Z" fill="#6b7b7a"></path><path d="M0 503L21.5 509.3C43 515.7 86 528.3 128.8 530.3C171.7 532.3 214.3 523.7 257.2 516.7C300 509.7 343 504.3 385.8 507.8C428.7 511.3 471.3 523.7 514.2 524.7C557 525.7 600 515.3 642.8 507.2C685.7 499 728.3 493 771.2 490.5C814 488 857 489 878.5 489.5L900 490L900 601L878.5 601C857 601 814 601 771.2 601C728.3 601 685.7 601 642.8 601C600 601 557 601 514.2 601C471.3 601 428.7 601 385.8 601C343 601 300 601 257.2 601C214.3 601 171.7 601 128.8 601C86 601 43 601 21.5 601L0 601Z" fill="#586e6d"></path><path d="M0 540L21.5 539.8C43 539.7 86 539.3 128.8 536.8C171.7 534.3 214.3 529.7 257.2 528.5C300 527.3 343 529.7 385.8 537C428.7 544.3 471.3 556.7 514.2 558.7C557 560.7 600 552.3 642.8 546.7C685.7 541 728.3 538 771.2 535C814 532 857 529 878.5 527.5L900 526L900 601L878.5 601C857 601 814 601 771.2 601C728.3 601 685.7 601 642.8 601C600 601 557 601 514.2 601C471.3 601 428.7 601 385.8 601C343 601 300 601 257.2 601C214.3 601 171.7 601 128.8 601C86 601 43 601 21.5 601L0 601Z" fill="#466260"></path></svg>